<svg width="24" height="24" viewBox="0 0 24 24" fill="none" xmlns="http://www.w3.org/2000/svg">
<path d="M4 4H20C21.1046 4 22 4.89543 22 6V16C22 17.1046 21.1046 18 20 18H12L7 23V18H4C2.89543 18 2 17.1046 2 16V6C2 4.89543 2.89543 4 4 4Z" fill="#D5DBE1"/>
<path fill-rule="evenodd" clip-rule="evenodd" d="M11.2798 8.60475V7.86842C11.2798 7.66498 11.4447 7.5 11.6482 7.5H12.7535C12.9569 7.5 13.1219 7.66498 13.1219 7.86842V8.60475V8.97368V9.34303V9.71001L13.1219 10.0784H13.1226H13.492H13.8589H14.2283H14.5972H15.3335C15.537 10.0784 15.702 10.2434 15.702 10.4469V11.5521C15.702 11.7556 15.537 11.9205 15.3335 11.9205H14.5972H14.2283H13.8589H13.492H13.1226H13.1219V12.1065V12.2903V12.6573V13.0266V13.3956V14.1319C13.1219 14.3354 12.9569 14.5003 12.7535 14.5003H11.6482C11.4447 14.5003 11.2798 14.3354 11.2798 14.1319V13.3956V13.0266V12.6573V12.2903V12.1065V11.9205H11.0955H10.9117H10.5447H10.1753H9.80641H9.07008C8.86661 11.9205 8.70166 11.7556 8.70166 11.5521V10.4469C8.70166 10.2434 8.86661 10.0784 9.07008 10.0784H9.80641H10.1753H10.5447H10.9117H11.0955H11.2798L11.2798 9.71001V9.34303V8.97368V8.60475Z" fill="#808996"/>
</svg>
