<svg width="48" height="48" viewBox="0 0 48 48" fill="none" xmlns="http://www.w3.org/2000/svg">
<path d="M16 2H32C32.5304 2 33.0392 2.21074 33.4144 2.58582C33.7894 2.96088 34 3.46956 34 4V22H14V4C14 3.46956 14.2107 2.96088 14.5858 2.58582C14.9609 2.21074 15.4696 2 16 2Z" fill="#7CAAFF"/>
<path d="M4 26H20C20.5304 26 21.0392 26.2108 21.4144 26.5858C21.7894 26.9608 22 27.4696 22 28V46H2V28C2 27.4696 2.21074 26.9608 2.58582 26.5858C2.96088 26.2108 3.46956 26 4 26Z" fill="#7CAAFF"/>
<path d="M28 26H44C44.5304 26 45.0392 26.2108 45.4144 26.5858C45.7894 26.9608 46 27.4696 46 28V46H26V28C26 27.4696 26.2108 26.9608 26.5858 26.5858C26.9608 26.2108 27.4696 26 28 26Z" fill="#7CAAFF"/>
<path d="M27 2H21V8H27V2Z" fill="#F0F0F0"/>
<path d="M15 26H9V32H15V26Z" fill="#F0F0F0"/>
<path d="M39 26H33V32H39V26Z" fill="#F0F0F0"/>
</svg>
