<svg width="48" height="48" viewBox="0 0 48 48" fill="none" xmlns="http://www.w3.org/2000/svg">
<path d="M36.521 19.9581L28.041 11.4781L32.281 1.57812L46.421 15.7181L36.521 19.9581Z" fill="url(#paint0_linear_547_11714)"/>
<path d="M32.28 15.7205L28.04 11.4805L13.9 14.3005L4.92002 40.9404L4 44.0004L7.04 43.0604L33.7 34.1004L36.52 19.9604L32.28 15.7205Z" fill="#7CAAFF"/>
<path d="M26.62 21.3802C26.2486 21.0082 25.8074 20.7132 25.3218 20.512C24.8362 20.3106 24.3156 20.207 23.79 20.207C23.2644 20.207 22.7438 20.3106 22.2582 20.512C21.7726 20.7132 21.3314 21.0082 20.96 21.3802C20.401 21.9444 20.0226 22.6622 19.8729 23.4422C19.7233 24.2222 19.8093 25.0292 20.12 25.7602L4.91998 40.9602L4 44.0002L7.03998 43.0802L22.24 27.8802C22.971 28.1908 23.7778 28.2768 24.558 28.1272C25.338 27.9776 26.0558 27.5992 26.62 27.0402C26.992 26.6686 27.287 26.2276 27.4882 25.742C27.6896 25.2564 27.7932 24.7358 27.7932 24.2102C27.7932 23.6844 27.6896 23.164 27.4882 22.6784C27.287 22.1928 26.992 21.7516 26.62 21.3802Z" fill="url(#paint1_linear_547_11714)"/>
<defs>
<linearGradient id="paint0_linear_547_11714" x1="31.5" y1="16.5" x2="40.5" y2="9.5" gradientUnits="userSpaceOnUse">
<stop stop-color="#E4E4E4"/>
<stop offset="1" stop-color="#CDCFD0"/>
</linearGradient>
<linearGradient id="paint1_linear_547_11714" x1="4" y1="44" x2="25.5" y2="22" gradientUnits="userSpaceOnUse">
<stop stop-color="#E2E2E2"/>
<stop offset="1" stop-color="white"/>
</linearGradient>
</defs>
</svg>
