<svg width="59" height="59" viewBox="0 0 59 59" fill="none" xmlns="http://www.w3.org/2000/svg">
<g filter="url(#filter0_d_547_11697)">
<path d="M40.521 23.9581L32.041 15.4781L36.281 5.57812L50.421 19.7181L40.521 23.9581Z" fill="url(#paint0_linear_547_11697)"/>
<path d="M36.28 19.7205L32.04 15.4805L17.9 18.3005L8.92002 44.9404L8 48.0004L11.04 47.0604L37.7 38.1004L40.52 23.9604L36.28 19.7205Z" fill="url(#paint1_linear_547_11697)"/>
<path d="M30.62 25.3802C30.2486 25.0082 29.8074 24.7132 29.3218 24.512C28.8362 24.3106 28.3156 24.207 27.79 24.207C27.2644 24.207 26.7438 24.3106 26.2582 24.512C25.7726 24.7132 25.3314 25.0082 24.96 25.3802C24.401 25.9444 24.0226 26.6622 23.8729 27.4422C23.7233 28.2222 23.8093 29.0292 24.12 29.7602L8.91998 44.9602L8 48.0002L11.04 47.0802L26.24 31.8802C26.971 32.1908 27.7778 32.2768 28.558 32.1272C29.338 31.9776 30.0558 31.5992 30.62 31.0402C30.992 30.6686 31.287 30.2276 31.4882 29.742C31.6896 29.2564 31.7932 28.7358 31.7932 28.2102C31.7932 27.6844 31.6896 27.164 31.4882 26.6784C31.287 26.1928 30.992 25.7516 30.62 25.3802Z" fill="url(#paint2_linear_547_11697)" fill-opacity="0.9"/>
</g>
<defs>
<filter id="filter0_d_547_11697" x="0" y="0.578125" width="58.4209" height="58.4219" filterUnits="userSpaceOnUse" color-interpolation-filters="sRGB">
<feFlood flood-opacity="0" result="BackgroundImageFix"/>
<feColorMatrix in="SourceAlpha" type="matrix" values="0 0 0 0 0 0 0 0 0 0 0 0 0 0 0 0 0 0 127 0" result="hardAlpha"/>
<feOffset dy="3"/>
<feGaussianBlur stdDeviation="4"/>
<feComposite in2="hardAlpha" operator="out"/>
<feColorMatrix type="matrix" values="0 0 0 0 0.538851 0 0 0 0 0.538851 0 0 0 0 0.538851 0 0 0 0.5 0"/>
<feBlend mode="normal" in2="BackgroundImageFix" result="effect1_dropShadow_547_11697"/>
<feBlend mode="normal" in="SourceGraphic" in2="effect1_dropShadow_547_11697" result="shape"/>
</filter>
<linearGradient id="paint0_linear_547_11697" x1="35.5" y1="20.5" x2="44.5" y2="13.5" gradientUnits="userSpaceOnUse">
<stop stop-color="#E3EFFC"/>
<stop offset="1" stop-color="#DBE9FA"/>
</linearGradient>
<linearGradient id="paint1_linear_547_11697" x1="15.5" y1="27.5" x2="36.5569" y2="41.2155" gradientUnits="userSpaceOnUse">
<stop stop-color="#40A9F4"/>
<stop offset="0.21" stop-color="#4284FF" stop-opacity="0.8"/>
<stop offset="0.585281" stop-color="#1363FF" stop-opacity="0.73"/>
<stop offset="0.915" stop-color="#C284FF"/>
</linearGradient>
<linearGradient id="paint2_linear_547_11697" x1="8" y1="48" x2="29.5" y2="26" gradientUnits="userSpaceOnUse">
<stop stop-color="#D7D6D6"/>
<stop offset="1" stop-color="white"/>
</linearGradient>
</defs>
</svg>
