<svg width="20" height="20" viewBox="0 0 20 20" fill="none" xmlns="http://www.w3.org/2000/svg">
<path d="M9.79183 11.2487C10.5972 11.2487 11.2502 10.5958 11.2502 9.79036C11.2502 8.98493 10.5972 8.33203 9.79183 8.33203C8.98642 8.33203 8.3335 8.98493 8.3335 9.79036C8.3335 10.5958 8.98642 11.2487 9.79183 11.2487Z" fill="#808996"/>
<path d="M9.79183 5.41667C10.5973 5.41667 11.2502 4.76375 11.2502 3.95833C11.2502 3.15292 10.5973 2.5 9.79183 2.5C8.98639 2.5 8.3335 3.15292 8.3335 3.95833C8.3335 4.76375 8.98639 5.41667 9.79183 5.41667Z" fill="#808996"/>
<path d="M9.79183 17.0846C10.5973 17.0846 11.2502 16.4317 11.2502 15.6263C11.2502 14.8209 10.5973 14.168 9.79183 14.168C8.98639 14.168 8.3335 14.8209 8.3335 15.6263C8.3335 16.4317 8.98639 17.0846 9.79183 17.0846Z" fill="#808996"/>
</svg>
