<svg width="56" height="64" viewBox="0 0 56 64" fill="none" xmlns="http://www.w3.org/2000/svg">
<path fill-rule="evenodd" clip-rule="evenodd" d="M27.8476 0C25.7217 0 23.9982 1.72343 23.9982 3.8494V18.8495C23.9982 21.5363 21.0898 23.2155 18.763 21.8721L5.775 14.3735C3.93386 13.3105 1.5796 13.9413 0.516616 15.7824C-0.546367 17.6236 0.0844511 19.9778 1.92559 21.0408L14.9167 28.5413C17.2435 29.8846 17.2435 33.243 14.9167 34.5864L1.92534 42.0869C0.0842037 43.1499 -0.546618 45.5042 0.516365 47.3453C1.57935 49.1865 3.93361 49.8173 5.77475 48.7543L18.763 41.2555C21.0898 39.9122 23.9982 41.5914 23.9982 44.2781V59.2808C23.9982 61.4068 25.7217 63.1302 27.8476 63.1302C29.9736 63.1302 31.697 61.4068 31.697 59.2808V44.2745C31.697 41.5877 34.6055 39.9086 36.9322 41.2519L49.9306 48.7565C51.7717 49.8195 54.126 49.1887 55.189 47.3475C56.252 45.5064 55.6211 43.1521 53.78 42.0892L40.7848 34.5864C38.458 33.243 38.458 29.8846 40.7848 28.5413L43.712 26.8512C45.5532 25.7882 46.184 23.434 45.121 21.5928C44.058 19.7517 41.7038 19.1209 39.8626 20.1839L36.9322 21.8757C34.6055 23.2191 31.697 21.5399 31.697 18.8532V3.8494C31.697 1.72344 29.9736 0 27.8476 0ZM55.1883 15.7905C56.2512 17.6316 55.6204 19.9859 53.7793 21.0489L53.6448 21.1265C51.8036 22.1895 49.4494 21.5587 48.3864 19.7175C47.3234 17.8764 47.9542 15.5221 49.7954 14.4592L49.9299 14.3815C51.771 13.3185 54.1253 13.9493 55.1883 15.7905Z" fill="url(#paint0_linear_547_11734)"/>
<defs>
<linearGradient id="paint0_linear_547_11734" x1="13.5" y1="10" x2="40.5" y2="56.5" gradientUnits="userSpaceOnUse">
<stop stop-color="#00B3FF"/>
<stop offset="0.378461" stop-color="#0059FF"/>
<stop offset="0.728599" stop-color="#003599"/>
<stop offset="1" stop-color="#4D0099"/>
</linearGradient>
</defs>
</svg>
