<svg width="40" height="40" viewBox="0 0 40 40" fill="none" xmlns="http://www.w3.org/2000/svg">
<rect width="40" height="40" rx="12" fill="#0059FF"/>
<path fill-rule="evenodd" clip-rule="evenodd" d="M19.9986 8.16406C19.2014 8.16406 18.5551 8.81036 18.5551 9.6076V15.7511C18.5551 16.5283 17.7138 17.014 17.0407 16.6254L11.7208 13.554C11.0304 13.1554 10.1475 13.392 9.74893 14.0824C9.3503 14.7728 9.58686 15.6557 10.2773 16.0543L15.5985 19.1265C16.2715 19.5151 16.2715 20.4865 15.5985 20.8751L10.2772 23.9474C9.58675 24.346 9.35019 25.2288 9.74881 25.9193C10.1474 26.6097 11.0303 26.8463 11.7207 26.4477L17.0407 23.3762C17.7138 22.9876 18.5551 23.4733 18.5551 24.2505V30.3946C18.5551 31.1918 19.2014 31.8381 19.9986 31.8381C20.7959 31.8381 21.4422 31.1918 21.4422 30.3946V24.249C21.4422 23.4718 22.2835 22.9861 22.9565 23.3747L28.2794 26.4478C28.9698 26.8464 29.8526 26.6099 30.2513 25.9194C30.6499 25.229 30.4133 24.3461 29.7229 23.9475L24.4014 20.8751C23.7283 20.4865 23.7283 19.5151 24.4014 19.1265L25.9474 18.2339C26.6378 17.8353 26.8744 16.9524 26.4757 16.262C26.0771 15.5716 25.1942 15.335 24.5038 15.7336L22.9565 16.6269C22.2835 17.0155 21.4422 16.5298 21.4422 15.7526V9.6076C21.4422 8.81036 20.7959 8.16406 19.9986 8.16406ZM30.2509 14.0846C30.6495 14.775 30.4129 15.6578 29.7225 16.0565L29.672 16.0856C28.9816 16.4842 28.0988 16.2477 27.7001 15.5572C27.3015 14.8668 27.5381 13.9839 28.2285 13.5853L28.2789 13.5562C28.9694 13.1576 29.8522 13.3941 30.2509 14.0846Z" fill="#FCFCFC"/>
</svg>
